<?xml version="1.0" encoding="UTF-8" standalone="no"?>
<!-- Created with Inkscape (http://www.inkscape.org/) -->

<svg
   version="1.1"
   id="svg2"
   xml:space="preserve"
   width="831.94397"
   height="1027.9174"
   viewBox="0 0 831.94397 1027.9173"
   sodipodi:docname="d2d5d3f031f0fb309981e5394eb69c59.eps"
   xmlns:inkscape="http://www.inkscape.org/namespaces/inkscape"
   xmlns:sodipodi="http://sodipodi.sourceforge.net/DTD/sodipodi-0.dtd"
   xmlns="http://www.w3.org/2000/svg"
   xmlns:svg="http://www.w3.org/2000/svg"><defs
     id="defs6" /><sodipodi:namedview
     id="namedview4"
     pagecolor="#ffffff"
     bordercolor="#666666"
     borderopacity="1.0"
     inkscape:pageshadow="2"
     inkscape:pageopacity="0.0"
     inkscape:pagecheckerboard="0" /><g
     id="g8"
     inkscape:groupmode="layer"
     inkscape:label="ink_ext_XXXXXX"
     transform="matrix(1.3333333,0,0,-1.3333333,0,1027.9173)"><g
       id="g10"
       transform="scale(0.1)"><path
         d="M 9.16797,7709.38 72.918,7458.33 h 656.246 v 93.75 l 4739.586,10.42 v -93.75 l 656.25,-10.42 62.5,250 -6178.33203,1.05"
         style="fill:#283f87;fill-opacity:1;fill-rule:nonzero;stroke:none"
         id="path12" /><path
         d="m 93.75,7375 52.086,-239.59 h 583.328 v 93.75 L 2791.67,7218.75 V 4770.83 l -114.59,10.42 v 885.42 h -83.33 V 7062.5 l -2437.5,-10.42 72.914,-250 500,10.42 v 104.16 L 2437.5,6906.25 V 4760.42 l -104.17,10.41 v 895.84 H 2250 V 6760.41 H 239.586 L 302.086,6500 H 718.75 l 10.414,93.75 H 2072.92 l 10.41,-3510.42 2052.09,10.42 -10.42,3510.42 1343.75,10.41 10.42,-104.16 h 427.08 l 52.08,239.58 h -2000 V 5666.67 h -93.75 v -906.25 h -93.75 v 2145.83 h 1697.92 v -83.34 l 520.83,10.42 52.09,218.75 H 3604.17 V 5656.25 l -93.75,-10.42 v -864.58 h -83.34 v 2437.5 h 2041.67 v -104.17 l 583.33,-10.42 62.5,270.84 -2895.83,10.41 V 5666.67 h -83.33 v -906.25 h -83.34 v 906.25 l -83.33,10.41 V 7385.41 L 93.75,7375"
         style="fill:#283f87;fill-opacity:1;fill-rule:nonzero;stroke:none"
         id="path14" /><path
         d="m 1947.92,5635.42 -291.67,-166.67 v -2687.5 h 2895.83 v 2708.33 l -333.33,166.67 v -802.08 l 114.58,-93.75 V 2979.17 H 1864.58 v 1791.66 l 83.34,52.09 v 812.5"
         style="fill:#283f87;fill-opacity:1;fill-rule:nonzero;stroke:none"
         id="path16" /><path
         d="m 1562.5,5427.08 -322.92,-187.5 V 2437.5 H 4958.33 V 5250 l -312.5,177.08 V 4593.75 L 4760.42,4520.83 4750,2666.67 H 1437.5 v 1885.41 l 125,62.5 v 812.5"
         style="fill:#283f87;fill-opacity:1;fill-rule:nonzero;stroke:none"
         id="path18" /><path
         d="M 1145.83,5166.67 843.75,5000 V 2156.25 L 5375,2145.83 v 2833.34 l -302.08,187.5 -10.42,-822.92 114.58,-52.08 V 2343.75 H 1031.25 v 1937.5 l 125,83.33 -10.42,802.09"
         style="fill:#283f87;fill-opacity:1;fill-rule:nonzero;stroke:none"
         id="path20" /><path
         d="M 739.586,4916.67 406.25,4739.58 416.664,1833.33 H 5781.25 V 4750 l -302.08,187.5 -10.42,-833.33 114.58,-72.92 V 2041.67 H 625 v 2000 L 739.586,4125 v 791.67"
         style="fill:#283f87;fill-opacity:1;fill-rule:nonzero;stroke:none"
         id="path22" /><path
         d="M 333.336,4697.92 0,4479.17 10.4141,1552.08 H 6187.5 V 4500 l -291.67,177.08 20.84,-822.91 83.33,-62.5 V 1708.33 H 208.336 v 2083.34 l 125,83.33 v 822.92"
         style="fill:#283f87;fill-opacity:1;fill-rule:nonzero;stroke:none"
         id="path24" /><path
         d="m 439.586,1090 -110,-50 V 215 l 650,-5 -5,825 -100,50 -5,-805 h -435 l 5,810"
         style="fill:#283f87;fill-opacity:1;fill-rule:nonzero;stroke:none"
         id="path26" /><path
         d="m 274.586,1010 -115,-70 5,-830 h 979.994 l -5,840 -100,65 V 155 H 279.586 l -5,855"
         style="fill:#283f87;fill-opacity:1;fill-rule:nonzero;stroke:none"
         id="path28" /><path
         d="M 104.586,920 4.58594,860 9.16406,1.73047 1314.58,5 v 845 l -120,65 -5,-850 -1084.994,-5 v 860"
         style="fill:#283f87;fill-opacity:1;fill-rule:nonzero;stroke:none"
         id="path30" /><path
         d="m 1754.58,925 -125,-60 5,-865 h 115 l 5,925"
         style="fill:#283f87;fill-opacity:1;fill-rule:nonzero;stroke:none"
         id="path32" /><path
         d="M 1804.58,950 V 10 h 110 l 10,650 855,-655 -5,955 -100,55 5,-720 -875,655"
         style="fill:#283f87;fill-opacity:1;fill-rule:nonzero;stroke:none"
         id="path34" /><path
         d="m 1864.58,970 125,80 510,-400 10,460 115,-70 V 385 l -760,585"
         style="fill:#283f87;fill-opacity:1;fill-rule:nonzero;stroke:none"
         id="path36" /><path
         d="m 1964.58,5 v 560 l 720,-560 h -235 l -370,290 5,-290 h -120"
         style="fill:#283f87;fill-opacity:1;fill-rule:nonzero;stroke:none"
         id="path38" /><path
         d="m 2849.58,925 110,-60 V 5 l -115,5 5,915"
         style="fill:#283f87;fill-opacity:1;fill-rule:nonzero;stroke:none"
         id="path40" /><path
         d="m 3384.58,920 -130,-70 5,-835 130,-5 -5,910"
         style="fill:#283f87;fill-opacity:1;fill-rule:nonzero;stroke:none"
         id="path42" /><path
         d="M 3429.58,945 V 5 h 1150 v 100 l -1030,-5 v 765 l 200,115 830,5 5,95 -895,10 -260,-145"
         style="fill:#283f87;fill-opacity:1;fill-rule:nonzero;stroke:none"
         id="path44" /><path
         d="m 4579.58,925 -835,-10 -145,-80 V 570 l 980,-5 5,100 -875,-5 v 115 l 100,50 770,5 v 95"
         style="fill:#283f87;fill-opacity:1;fill-rule:nonzero;stroke:none"
         id="path46" /><path
         d="m 4584.58,505 -980,5 V 160 h 980 l -5,100 h -875 v 155 h 880 v 90"
         style="fill:#283f87;fill-opacity:1;fill-rule:nonzero;stroke:none"
         id="path48" /><path
         d="m 4909.58,1085 45,-80 1245,5 40,85 -1330,-10"
         style="fill:#283f87;fill-opacity:1;fill-rule:nonzero;stroke:none"
         id="path50" /><path
         d="m 4969.58,965 35,-85 h 525 V 5 h 85 v 875 h 545 l 35,90 -1225,-5"
         style="fill:#283f87;fill-opacity:1;fill-rule:nonzero;stroke:none"
         id="path52" /><path
         d="m 5009.58,840 25,-75 h 325 V 0 h 145 v 845 l -495,-5"
         style="fill:#283f87;fill-opacity:1;fill-rule:nonzero;stroke:none"
         id="path54" /><path
         d="M 5659.58,845 V 0 h 155 v 780 h 305 l 25,65 h -485"
         style="fill:#283f87;fill-opacity:1;fill-rule:nonzero;stroke:none"
         id="path56" /></g></g></svg>
